{
	"asset":{
		"generator":"Khronos glTF Blender I/O v3.6.27",
		"version":"2.0"
	},
	"scene":0,
	"scenes":[
		{
			"name":"Scene",
			"nodes":[
				0,
				1,
				2,
				3,
				4
			]
		}
	],
	"nodes":[
		{
			"mesh":0,
			"name":"Gem",
			"scale":[
				1.2408207654953003,
				1.2408207654953003,
				1.2408207654953003
			],
			"translation":[
				0,
				69.92818450927734,
				0
			]
		},
		{
			"mesh":1,
			"name":"Handler",
			"scale":[
				1,
				3.9641473293304443,
				1
			],
			"translation":[
				0,
				58.49308776855469,
				0
			]
		},
		{
			"mesh":2,
			"name":"Base",
			"scale":[
				1.0763763189315796,
				1,
				1
			],
			"translation":[
				0,
				53.73102569580078,
				0
			]
		},
		{
			"mesh":3,
			"name":"Blade",
			"scale":[
				0.5663390159606934,
				1,
				2.9749233722686768
			],
			"translation":[
				0,
				35.17057800292969,
				0
			]
		},
		{
			"mesh":4,
			"name":"tree",
			"rotation":[
				0.7071068286895752,
				0,
				0,
				0.7071068286895752
			],
			"scale":[
				0.5476776361465454,
				0.5476776361465454,
				0.23016777634620667
			],
			"translation":[
				0,
				-2.1735892295837402,
				0
			]
		}
	],
	"materials":[
		{
			"doubleSided":true,
			"name":"Gem",
			"pbrMetallicRoughness":{
				"baseColorFactor":[
					0.800000011920929,
					0.800000011920929,
					0.800000011920929,
					1
				],
				"metallicFactor":0,
				"roughnessFactor":0.5
			}
		},
		{
			"doubleSided":true,
			"name":"Base",
			"pbrMetallicRoughness":{
				"baseColorFactor":[
					0.800000011920929,
					0.800000011920929,
					0.800000011920929,
					1
				],
				"metallicFactor":0,
				"roughnessFactor":0.5
			}
		},
		{
			"doubleSided":true,
			"name":"Base02",
			"pbrMetallicRoughness":{
				"baseColorFactor":[
					0.800000011920929,
					0.800000011920929,
					0.800000011920929,
					1
				],
				"metallicFactor":0,
				"roughnessFactor":0.5
			}
		},
		{
			"doubleSided":true,
			"name":"Blade",
			"pbrMetallicRoughness":{
				"baseColorFactor":[
					0.800000011920929,
					0.800000011920929,
					0.800000011920929,
					1
				],
				"metallicFactor":0,
				"roughnessFactor":0.5
			}
		},
		{
			"doubleSided":true,
			"name":"Outside_woods",
			"pbrMetallicRoughness":{
				"baseColorFactor":[
					0.800000011920929,
					0.800000011920929,
					0.800000011920929,
					1
				],
				"metallicFactor":0,
				"roughnessFactor":0.5
			}
		},
		{
			"doubleSided":true,
			"name":"Inside_wood",
			"pbrMetallicRoughness":{
				"baseColorFactor":[
					0.800000011920929,
					0.800000011920929,
					0.800000011920929,
					1
				],
				"metallicFactor":0,
				"roughnessFactor":0.5
			}
		}
	],
	"meshes":[
		{
			"name":"Icosphere",
			"primitives":[
				{
					"attributes":{
						"POSITION":0,
						"NORMAL":1,
						"TEXCOORD_0":2
					},
					"indices":3,
					"material":0
				}
			]
		},
		{
			"name":"Cylinder.001",
			"primitives":[
				{
					"attributes":{
						"POSITION":4,
						"NORMAL":5,
						"TEXCOORD_0":6
					},
					"indices":7,
					"material":1
				}
			]
		},
		{
			"name":"Cube.001",
			"primitives":[
				{
					"attributes":{
						"POSITION":8,
						"NORMAL":9,
						"TEXCOORD_0":10
					},
					"indices":11,
					"material":2
				}
			]
		},
		{
			"name":"Cube.002",
			"primitives":[
				{
					"attributes":{
						"POSITION":12,
						"NORMAL":13,
						"TEXCOORD_0":14
					},
					"indices":15,
					"material":3
				}
			]
		},
		{
			"name":"tree",
			"primitives":[
				{
					"attributes":{
						"POSITION":16,
						"NORMAL":17,
						"TEXCOORD_0":18
					},
					"indices":19,
					"material":4
				},
				{
					"attributes":{
						"POSITION":20,
						"NORMAL":21,
						"TEXCOORD_0":22
					},
					"indices":23,
					"material":5
				}
			]
		}
	],
	"accessors":[
		{
			"bufferView":0,
			"componentType":5126,
			"count":60,
			"max":[
				0.8944249749183655,
				1,
				0.8506399989128113
			],
			"min":[
				-0.8944249749183655,
				-1,
				-0.8506399989128113
			],
			"type":"VEC3"
		},
		{
			"bufferView":1,
			"componentType":5126,
			"count":60,
			"type":"VEC3"
		},
		{
			"bufferView":2,
			"componentType":5126,
			"count":60,
			"type":"VEC2"
		},
		{
			"bufferView":3,
			"componentType":5123,
			"count":60,
			"type":"SCALAR"
		},
		{
			"bufferView":4,
			"componentType":5126,
			"count":62,
			"max":[
				0.9837424159049988,
				2.7444965839385986,
				0.9675456285476685
			],
			"min":[
				-0.9837424159049988,
				-1.2026854753494263,
				-0.9891611337661743
			],
			"type":"VEC3"
		},
		{
			"bufferView":5,
			"componentType":5126,
			"count":62,
			"type":"VEC3"
		},
		{
			"bufferView":6,
			"componentType":5126,
			"count":62,
			"type":"VEC2"
		},
		{
			"bufferView":7,
			"componentType":5123,
			"count":168,
			"type":"SCALAR"
		},
		{
			"bufferView":8,
			"componentType":5126,
			"count":104,
			"max":[
				1,
				1,
				7.009735107421875
			],
			"min":[
				-1,
				-2.3227953910827637,
				-7.009735107421875
			],
			"type":"VEC3"
		},
		{
			"bufferView":9,
			"componentType":5126,
			"count":104,
			"type":"VEC3"
		},
		{
			"bufferView":10,
			"componentType":5126,
			"count":104,
			"type":"VEC2"
		},
		{
			"bufferView":11,
			"componentType":5123,
			"count":204,
			"type":"SCALAR"
		},
		{
			"bufferView":12,
			"componentType":5126,
			"count":38,
			"max":[
				1.753828525543213,
				18.219804763793945,
				1
			],
			"min":[
				-1.8432166576385498,
				-30.021869659423828,
				-1
			],
			"type":"VEC3"
		},
		{
			"bufferView":13,
			"componentType":5126,
			"count":38,
			"type":"VEC3"
		},
		{
			"bufferView":14,
			"componentType":5126,
			"count":38,
			"type":"VEC2"
		},
		{
			"bufferView":15,
			"componentType":5123,
			"count":60,
			"type":"SCALAR"
		},
		{
			"bufferView":16,
			"componentType":5126,
			"count":1196,
			"max":[
				42.254329681396484,
				42.003360748291016,
				0
			],
			"min":[
				-38.455230712890625,
				-39.140899658203125,
				-122.98833465576172
			],
			"type":"VEC3"
		},
		{
			"bufferView":17,
			"componentType":5126,
			"count":1196,
			"type":"VEC3"
		},
		{
			"bufferView":18,
			"componentType":5126,
			"count":1196,
			"type":"VEC2"
		},
		{
			"bufferView":19,
			"componentType":5123,
			"count":2706,
			"type":"SCALAR"
		},
		{
			"bufferView":20,
			"componentType":5126,
			"count":7,
			"max":[
				24.13936996459961,
				27.133602142333984,
				-104.99795532226562
			],
			"min":[
				-21.585477828979492,
				-26.40230941772461,
				-118.3456802368164
			],
			"type":"VEC3"
		},
		{
			"bufferView":21,
			"componentType":5126,
			"count":7,
			"type":"VEC3"
		},
		{
			"bufferView":22,
			"componentType":5126,
			"count":7,
			"type":"VEC2"
		},
		{
			"bufferView":23,
			"componentType":5123,
			"count":15,
			"type":"SCALAR"
		}
	],
	"bufferViews":[
		{
			"buffer":0,
			"byteLength":720,
			"byteOffset":0,
			"target":34962
		},
		{
			"buffer":0,
			"byteLength":720,
			"byteOffset":720,
			"target":34962
		},
		{
			"buffer":0,
			"byteLength":480,
			"byteOffset":1440,
			"target":34962
		},
		{
			"buffer":0,
			"byteLength":120,
			"byteOffset":1920,
			"target":34963
		},
		{
			"buffer":0,
			"byteLength":744,
			"byteOffset":2040,
			"target":34962
		},
		{
			"buffer":0,
			"byteLength":744,
			"byteOffset":2784,
			"target":34962
		},
		{
			"buffer":0,
			"byteLength":496,
			"byteOffset":3528,
			"target":34962
		},
		{
			"buffer":0,
			"byteLength":336,
			"byteOffset":4024,
			"target":34963
		},
		{
			"buffer":0,
			"byteLength":1248,
			"byteOffset":4360,
			"target":34962
		},
		{
			"buffer":0,
			"byteLength":1248,
			"byteOffset":5608,
			"target":34962
		},
		{
			"buffer":0,
			"byteLength":832,
			"byteOffset":6856,
			"target":34962
		},
		{
			"buffer":0,
			"byteLength":408,
			"byteOffset":7688,
			"target":34963
		},
		{
			"buffer":0,
			"byteLength":456,
			"byteOffset":8096,
			"target":34962
		},
		{
			"buffer":0,
			"byteLength":456,
			"byteOffset":8552,
			"target":34962
		},
		{
			"buffer":0,
			"byteLength":304,
			"byteOffset":9008,
			"target":34962
		},
		{
			"buffer":0,
			"byteLength":120,
			"byteOffset":9312,
			"target":34963
		},
		{
			"buffer":0,
			"byteLength":14352,
			"byteOffset":9432,
			"target":34962
		},
		{
			"buffer":0,
			"byteLength":14352,
			"byteOffset":23784,
			"target":34962
		},
		{
			"buffer":0,
			"byteLength":9568,
			"byteOffset":38136,
			"target":34962
		},
		{
			"buffer":0,
			"byteLength":5412,
			"byteOffset":47704,
			"target":34963
		},
		{
			"buffer":0,
			"byteLength":84,
			"byteOffset":53116,
			"target":34962
		},
		{
			"buffer":0,
			"byteLength":84,
			"byteOffset":53200,
			"target":34962
		},
		{
			"buffer":0,
			"byteLength":56,
			"byteOffset":53284,
			"target":34962
		},
		{
			"buffer":0,
			"byteLength":30,
			"byteOffset":53340,
			"target":34963
		}
	],
	"buffers":[
		{
			"byteLength":53372,
			"uri":"Stuck_sword.bin"
		}
	]
}
