{
	"asset":{
		"generator":"Khronos glTF Blender I/O v3.6.27",
		"version":"2.0"
	},
	"scene":0,
	"scenes":[
		{
			"name":"Scene",
			"nodes":[
				0,
				1,
				2,
				3,
				4,
				5
			]
		}
	],
	"nodes":[
		{
			"mesh":0,
			"name":"Trunk001",
			"scale":[
				1,
				5.0641770362854,
				1
			]
		},
		{
			"mesh":1,
			"name":"Leaves001",
			"scale":[
				4.808871746063232,
				4.808871746063232,
				4.808871746063232
			],
			"translation":[
				0,
				3.7132630348205566,
				0
			]
		},
		{
			"mesh":2,
			"name":"Leaves002",
			"scale":[
				4.830160617828369,
				4.830160617828369,
				4.830160617828369
			],
			"translation":[
				0,
				5.759185791015625,
				0
			]
		},
		{
			"mesh":3,
			"name":"Leaves003",
			"scale":[
				4.153535842895508,
				4.153535842895508,
				4.153535842895508
			],
			"translation":[
				0,
				7.946207046508789,
				0
			]
		},
		{
			"mesh":4,
			"name":"Leaves004",
			"scale":[
				3.253239393234253,
				3.253239393234253,
				3.253239393234253
			],
			"translation":[
				0,
				10.141067504882812,
				0
			]
		},
		{
			"mesh":5,
			"name":"Leaves005",
			"scale":[
				2.352384090423584,
				2.352384090423584,
				2.352384090423584
			],
			"translation":[
				0,
				11.979104042053223,
				0
			]
		}
	],
	"meshes":[
		{
			"name":"Cylinder",
			"primitives":[
				{
					"attributes":{
						"POSITION":0,
						"NORMAL":1,
						"TEXCOORD_0":2
					},
					"indices":3
				}
			]
		},
		{
			"name":"Cone",
			"primitives":[
				{
					"attributes":{
						"POSITION":4,
						"NORMAL":5,
						"TEXCOORD_0":6
					},
					"indices":7
				}
			]
		},
		{
			"name":"Cone.003",
			"primitives":[
				{
					"attributes":{
						"POSITION":8,
						"NORMAL":9,
						"TEXCOORD_0":10
					},
					"indices":7
				}
			]
		},
		{
			"name":"Cone.004",
			"primitives":[
				{
					"attributes":{
						"POSITION":11,
						"NORMAL":12,
						"TEXCOORD_0":13
					},
					"indices":7
				}
			]
		},
		{
			"name":"Cone.005",
			"primitives":[
				{
					"attributes":{
						"POSITION":14,
						"NORMAL":15,
						"TEXCOORD_0":16
					},
					"indices":7
				}
			]
		},
		{
			"name":"Cone.006",
			"primitives":[
				{
					"attributes":{
						"POSITION":17,
						"NORMAL":18,
						"TEXCOORD_0":19
					},
					"indices":7
				}
			]
		}
	],
	"accessors":[
		{
			"bufferView":0,
			"componentType":5126,
			"count":36,
			"max":[
				0.8660253882408142,
				1,
				1
			],
			"min":[
				-0.8660253882408142,
				-1,
				-1
			],
			"type":"VEC3"
		},
		{
			"bufferView":1,
			"componentType":5126,
			"count":36,
			"type":"VEC3"
		},
		{
			"bufferView":2,
			"componentType":5126,
			"count":36,
			"type":"VEC2"
		},
		{
			"bufferView":3,
			"componentType":5123,
			"count":60,
			"type":"SCALAR"
		},
		{
			"bufferView":4,
			"componentType":5126,
			"count":24,
			"max":[
				0.8660253882408142,
				1,
				1
			],
			"min":[
				-0.8660253882408142,
				-1,
				-1
			],
			"type":"VEC3"
		},
		{
			"bufferView":5,
			"componentType":5126,
			"count":24,
			"type":"VEC3"
		},
		{
			"bufferView":6,
			"componentType":5126,
			"count":24,
			"type":"VEC2"
		},
		{
			"bufferView":7,
			"componentType":5123,
			"count":30,
			"type":"SCALAR"
		},
		{
			"bufferView":8,
			"componentType":5126,
			"count":24,
			"max":[
				0.8660253882408142,
				1,
				1
			],
			"min":[
				-0.8660253882408142,
				-1,
				-1
			],
			"type":"VEC3"
		},
		{
			"bufferView":9,
			"componentType":5126,
			"count":24,
			"type":"VEC3"
		},
		{
			"bufferView":10,
			"componentType":5126,
			"count":24,
			"type":"VEC2"
		},
		{
			"bufferView":11,
			"componentType":5126,
			"count":24,
			"max":[
				0.8660253882408142,
				1,
				1
			],
			"min":[
				-0.8660253882408142,
				-1,
				-1
			],
			"type":"VEC3"
		},
		{
			"bufferView":12,
			"componentType":5126,
			"count":24,
			"type":"VEC3"
		},
		{
			"bufferView":13,
			"componentType":5126,
			"count":24,
			"type":"VEC2"
		},
		{
			"bufferView":14,
			"componentType":5126,
			"count":24,
			"max":[
				0.8660253882408142,
				1,
				1
			],
			"min":[
				-0.8660253882408142,
				-1,
				-1
			],
			"type":"VEC3"
		},
		{
			"bufferView":15,
			"componentType":5126,
			"count":24,
			"type":"VEC3"
		},
		{
			"bufferView":16,
			"componentType":5126,
			"count":24,
			"type":"VEC2"
		},
		{
			"bufferView":17,
			"componentType":5126,
			"count":24,
			"max":[
				0.8660253882408142,
				1,
				1
			],
			"min":[
				-0.8660253882408142,
				-1,
				-1
			],
			"type":"VEC3"
		},
		{
			"bufferView":18,
			"componentType":5126,
			"count":24,
			"type":"VEC3"
		},
		{
			"bufferView":19,
			"componentType":5126,
			"count":24,
			"type":"VEC2"
		}
	],
	"bufferViews":[
		{
			"buffer":0,
			"byteLength":432,
			"byteOffset":0,
			"target":34962
		},
		{
			"buffer":0,
			"byteLength":432,
			"byteOffset":432,
			"target":34962
		},
		{
			"buffer":0,
			"byteLength":288,
			"byteOffset":864,
			"target":34962
		},
		{
			"buffer":0,
			"byteLength":120,
			"byteOffset":1152,
			"target":34963
		},
		{
			"buffer":0,
			"byteLength":288,
			"byteOffset":1272,
			"target":34962
		},
		{
			"buffer":0,
			"byteLength":288,
			"byteOffset":1560,
			"target":34962
		},
		{
			"buffer":0,
			"byteLength":192,
			"byteOffset":1848,
			"target":34962
		},
		{
			"buffer":0,
			"byteLength":60,
			"byteOffset":2040,
			"target":34963
		},
		{
			"buffer":0,
			"byteLength":288,
			"byteOffset":2100,
			"target":34962
		},
		{
			"buffer":0,
			"byteLength":288,
			"byteOffset":2388,
			"target":34962
		},
		{
			"buffer":0,
			"byteLength":192,
			"byteOffset":2676,
			"target":34962
		},
		{
			"buffer":0,
			"byteLength":288,
			"byteOffset":2868,
			"target":34962
		},
		{
			"buffer":0,
			"byteLength":288,
			"byteOffset":3156,
			"target":34962
		},
		{
			"buffer":0,
			"byteLength":192,
			"byteOffset":3444,
			"target":34962
		},
		{
			"buffer":0,
			"byteLength":288,
			"byteOffset":3636,
			"target":34962
		},
		{
			"buffer":0,
			"byteLength":288,
			"byteOffset":3924,
			"target":34962
		},
		{
			"buffer":0,
			"byteLength":192,
			"byteOffset":4212,
			"target":34962
		},
		{
			"buffer":0,
			"byteLength":288,
			"byteOffset":4404,
			"target":34962
		},
		{
			"buffer":0,
			"byteLength":288,
			"byteOffset":4692,
			"target":34962
		},
		{
			"buffer":0,
			"byteLength":192,
			"byteOffset":4980,
			"target":34962
		}
	],
	"buffers":[
		{
			"byteLength":5172,
			"uri":"Large_pine.bin"
		}
	]
}
